<svg viewBox="0 0 28 30" xmlns="http://www.w3.org/2000/svg">
	<g class="ew-moon" fill="currentColor">
		<path d="M10.87,29.031c-4.224,0-8.217-2.047-10.683-5.478c-0.226-0.315-0.25-0.732-0.06-1.071c0.189-0.339,0.55-0.533,0.948-0.514 L1.24,21.98c0.179,0.012,0.358,0.025,0.54,0.025c6.126,0,11.11-4.952,11.11-11.04c0-2.304-0.717-4.518-2.072-6.403 c-0.227-0.315-0.25-0.731-0.062-1.07c0.189-0.338,0.562-0.542,0.947-0.514C18.599,3.409,24,9.122,24,15.984 C24,23.178,18.11,29.031,10.87,29.031z M3.183,23.939c2.053,1.959,4.807,3.084,7.688,3.084c6.125,0,11.109-4.952,11.109-11.039 c0-5.114-3.547-9.475-8.381-10.689c0.862,1.761,1.312,3.687,1.312,5.67C14.91,17.689,9.766,23.242,3.183,23.939z"/>
		<polygon fill-rule="evenodd" clip-rule="evenodd" points="6.665,10.211 7.123,6.618 4.585,8.915 1.254,8.126 3.283,10.995 2.932,14.618 5.485,12.336 8.812,13.147"/>
		<polygon fill-rule="evenodd" clip-rule="evenodd" points="25.313,1.902 25.556,0 24.212,1.216 22.449,0.799 23.523,2.317 23.337,4.235 24.688,3.027 26.449,3.456"/>
	</g>
</svg>
