<svg viewBox="0 0 48 50" xmlns="http://www.w3.org/2000/svg">
	<g class="ew-moon" fill="currentColor">
		<path fill-rule="evenodd" clip-rule="evenodd" d="M34.324,38.308c-0.007,0-0.734,0.002-1.945,0.002 c-0.018,0.002-0.033,0.012-0.053,0.012c-0.541,0-0.979-0.439-0.979-0.98s0.438-0.979,0.979-0.979l0,0v-0.011 c1.229,0,1.961,0,1.961,0c6.575-0.244,11.753-5.619,11.753-12.234c0-6.751-5.495-12.245-12.247-12.245 c-5.409,0-10.242,3.629-11.752,8.825c-0.078,0.27-0.27,0.493-0.523,0.612c-0.253,0.121-0.546,0.126-0.805,0.014 c-0.98-0.421-2.021-0.635-3.092-0.635c-3.459,0-6.553,2.32-7.52,5.643c-0.079,0.27-0.27,0.49-0.521,0.611 c-0.254,0.12-0.545,0.127-0.805,0.016c-0.607-0.26-1.252-0.391-1.918-0.391c-2.701,0-4.898,2.195-4.898,4.896 c0,2.7,2.197,4.897,4.898,4.897c0.608,0,1.268,0,1.959,0l0,0c0.541,0,0.979,0.438,0.979,0.979s-0.438,0.98-0.979,0.98 c-0.001,0-0.001,0-0.002,0c-0.69,0-1.349,0-1.957,0C3.076,38.321,0,35.244,0,31.464c0-2.309,1.155-4.346,2.91-5.588 c-1.007-0.758-1.915-1.655-2.666-2.701C0.022,22.867,0,22.46,0.186,22.129c0.185-0.331,0.535-0.521,0.926-0.501l0.16,0.011 c0.175,0.012,0.35,0.025,0.527,0.025c5.981,0,10.848-4.835,10.848-10.78c0-2.25-0.699-4.412-2.021-6.253 c-0.223-0.308-0.246-0.714-0.061-1.045c0.185-0.331,0.548-0.53,0.924-0.502c6.285,0.393,11.272,5.286,11.913,11.383 c2.633-2.824,6.374-4.553,10.392-4.553C41.627,9.913,48,16.284,48,24.116C48,31.79,41.992,38.024,34.324,38.308z M13.34,5.346 c0.842,1.719,1.279,3.601,1.279,5.537c0,6.565-5.022,11.988-11.451,12.668c0.549,0.523,1.164,0.959,1.807,1.352 c0.602-0.174,1.225-0.295,1.883-0.295c0.578,0,1.146,0.07,1.699,0.212c1.488-3.632,5.081-6.091,9.064-6.091 c0.98,0,1.941,0.143,2.867,0.427c0.261-0.696,0.574-1.365,0.935-2.001c0.06-0.45,0.101-0.906,0.101-1.372 C21.523,10.79,18.061,6.532,13.34,5.346z"/>
		<polygon fill-rule="evenodd" clip-rule="evenodd" points="6.563,10.211 7.021,6.618 4.484,8.915 1.152,8.126 3.182,10.995 2.831,14.618 5.384,12.336 8.71,13.147"/>
		<polygon fill-rule="evenodd" clip-rule="evenodd" points="25.211,1.902 25.455,0 24.111,1.216 22.347,0.799 23.421,2.317 23.236,4.235 24.587,3.027 26.347,3.456"/>
	</g>
	<g class="ew-snow" fill="currentColor">
		<path fill-rule="evenodd" clip-rule="evenodd" d="M8.885,43.474h1.135l-0.567-0.982c-0.138-0.238-0.056-0.545,0.183-0.684c0.24-0.137,0.545-0.055,0.684,0.184l0.566,0.982l0.567-0.982c0.138-0.238,0.444-0.32,0.683-0.184c0.24,0.139,0.321,0.445,0.184,0.684l-0.567,0.982h1.134c0.276,0,0.5,0.224,0.5,0.5c0,0.275-0.224,0.5-0.5,0.5h-1.134l0.567,0.982c0.138,0.238,0.057,0.545-0.184,0.682c-0.238,0.139-0.545,0.057-0.683-0.182l-0.56-0.969c-0.006,0-0.012,0.005-0.019,0.005l-0.556,0.964c-0.139,0.238-0.443,0.32-0.684,0.182c-0.238-0.137-0.32-0.443-0.183-0.682l0.556-0.964c-0.003-0.005-0.002-0.013-0.005-0.019H8.885c-0.275,0-0.5-0.225-0.5-0.5C8.385,43.698,8.609,43.474,8.885,43.474z"/>
		<path fill-rule="evenodd" clip-rule="evenodd" d="M13.908,46.474h1.133l-0.566-0.982c-0.139-0.239-0.057-0.545,0.184-0.684c0.238-0.137,0.545-0.055,0.682,0.184l0.568,0.982l0.566-0.982c0.139-0.238,0.444-0.32,0.684-0.184c0.238,0.139,0.32,0.444,0.183,0.684l-0.567,0.982h1.135c0.275,0,0.5,0.224,0.5,0.5s-0.225,0.5-0.5,0.5h-1.135l0.567,0.982c0.138,0.239,0.056,0.545-0.183,0.683c-0.239,0.138-0.545,0.057-0.684-0.183l-0.559-0.968c-0.007,0-0.013,0.005-0.02,0.005l-0.557,0.963c-0.137,0.239-0.443,0.32-0.682,0.183c-0.24-0.138-0.322-0.443-0.184-0.683l0.556-0.963c-0.003-0.006-0.002-0.014-0.005-0.02h-1.117c-0.277,0-0.5-0.224-0.5-0.5S13.631,46.474,13.908,46.474z"/>
		<path fill-rule="evenodd" clip-rule="evenodd" d="M17.621,43.15c-0.239-0.139-0.321-0.444-0.184-0.684l0.557-0.963c-0.004-0.006-0.002-0.014-0.006-0.02h-1.117c-0.276,0-0.5-0.223-0.5-0.5c0-0.275,0.224-0.5,0.5-0.5h1.134l-0.567-0.982c-0.138-0.238-0.056-0.544,0.184-0.682c0.238-0.139,0.545-0.057,0.684,0.182l0.566,0.982l0.566-0.982c0.139-0.238,0.444-0.32,0.684-0.182c0.238,0.138,0.32,0.443,0.183,0.682l-0.567,0.982h1.135c0.275,0,0.5,0.225,0.5,0.5c0,0.277-0.225,0.5-0.5,0.5h-1.135l0.567,0.982c0.138,0.239,0.056,0.545-0.183,0.684c-0.239,0.138-0.545,0.056-0.684-0.184l-0.559-0.968c-0.006,0.001-0.012,0.005-0.02,0.005l-0.555,0.963C18.166,43.206,17.859,43.288,17.621,43.15z"/>
		<path fill-rule="evenodd" clip-rule="evenodd" d="M21.858,43.474h1.134l-0.566-0.982c-0.139-0.238-0.057-0.545,0.183-0.684c0.239-0.137,0.545-0.055,0.683,0.184l0.567,0.982l0.567-0.982c0.138-0.238,0.443-0.32,0.683-0.184c0.239,0.139,0.321,0.445,0.183,0.684l-0.566,0.982h1.134c0.276,0,0.501,0.224,0.501,0.5c0,0.275-0.225,0.5-0.501,0.5h-1.134l0.566,0.982c0.139,0.238,0.057,0.545-0.183,0.682c-0.239,0.139-0.545,0.057-0.683-0.182l-0.559-0.969c-0.008,0-0.014,0.005-0.02,0.005l-0.557,0.964c-0.138,0.238-0.443,0.32-0.683,0.182c-0.239-0.137-0.321-0.443-0.183-0.682l0.556-0.964c-0.003-0.005-0.003-0.013-0.005-0.019h-1.118c-0.276,0-0.5-0.225-0.5-0.5C21.358,43.698,21.582,43.474,21.858,43.474z"/>
		<path fill-rule="evenodd" clip-rule="evenodd" d="M16.38,37.984c0,0.277-0.225,0.5-0.501,0.5h-1.134l0.567,0.982c0.138,0.239,0.057,0.545-0.184,0.684c-0.238,0.138-0.545,0.056-0.683-0.184l-0.559-0.968c-0.007,0.001-0.013,0.005-0.02,0.005l-0.556,0.963c-0.139,0.239-0.443,0.321-0.684,0.184c-0.238-0.139-0.32-0.444-0.183-0.684l0.556-0.963c-0.003-0.006-0.002-0.014-0.006-0.02h-1.117c-0.275,0-0.5-0.223-0.5-0.5c0-0.276,0.225-0.5,0.5-0.5h1.135l-0.567-0.982c-0.138-0.238-0.056-0.545,0.183-0.683c0.24-0.138,0.545-0.056,0.684,0.183l0.566,0.982l0.567-0.982c0.138-0.238,0.444-0.32,0.683-0.183c0.24,0.138,0.321,0.444,0.184,0.683l-0.567,0.982h1.134C16.155,37.484,16.38,37.708,16.38,37.984z"/>
		<path fill-rule="evenodd" clip-rule="evenodd" d="M20.394,31.96c0,0.276-0.224,0.5-0.5,0.5H18.76l0.566,0.982c0.139,0.239,0.057,0.545-0.184,0.683c-0.238,0.138-0.544,0.057-0.682-0.183l-0.56-0.968c-0.007,0-0.013,0.005-0.019,0.005l-0.557,0.963c-0.138,0.239-0.444,0.32-0.684,0.183c-0.238-0.138-0.32-0.443-0.183-0.683l0.556-0.963c-0.002-0.006-0.002-0.014-0.005-0.02h-1.118c-0.275,0-0.5-0.224-0.5-0.5c0-0.275,0.225-0.5,0.5-0.5h1.135l-0.567-0.981c-0.138-0.239-0.056-0.546,0.183-0.683c0.239-0.139,0.546-0.057,0.684,0.182l0.566,0.982l0.568-0.982c0.138-0.238,0.443-0.32,0.682-0.182c0.24,0.137,0.322,0.443,0.184,0.683L18.76,31.46h1.134C20.17,31.46,20.394,31.685,20.394,31.96z"/>
		<path fill-rule="evenodd" clip-rule="evenodd" d="M25.385,34.96c0,0.276-0.225,0.5-0.5,0.5H23.75l0.567,0.982c0.138,0.239,0.056,0.545-0.183,0.683c-0.239,0.139-0.545,0.057-0.684-0.183l-0.559-0.968c-0.007,0-0.012,0.005-0.02,0.005l-0.556,0.963c-0.138,0.239-0.444,0.321-0.683,0.183c-0.239-0.138-0.321-0.443-0.184-0.683l0.557-0.963c-0.004-0.006-0.002-0.014-0.006-0.02h-1.117c-0.276,0-0.5-0.224-0.5-0.5c0-0.275,0.224-0.5,0.5-0.5h1.134l-0.567-0.982c-0.138-0.238-0.056-0.545,0.184-0.683c0.238-0.138,0.545-0.056,0.683,0.183l0.567,0.982l0.566-0.982c0.139-0.238,0.444-0.32,0.684-0.183c0.238,0.138,0.32,0.444,0.183,0.683L23.75,34.46h1.135C25.16,34.46,25.385,34.685,25.385,34.96z"/>
		<path fill-rule="evenodd" clip-rule="evenodd" d="M27.008,38.503c-0.004-0.006-0.003-0.014-0.006-0.02h-1.118c-0.276,0-0.5-0.223-0.5-0.5c0-0.276,0.224-0.5,0.5-0.5h1.134l-0.566-0.982c-0.139-0.238-0.057-0.545,0.184-0.683c0.238-0.138,0.545-0.056,0.683,0.183l0.567,0.982l0.566-0.982c0.138-0.238,0.443-0.32,0.683-0.183s0.321,0.444,0.183,0.683l-0.566,0.982h1.135c0.275,0,0.5,0.224,0.5,0.5c0,0.277-0.225,0.5-0.5,0.5H28.75l0.566,0.982c0.139,0.239,0.057,0.545-0.183,0.684c-0.239,0.138-0.545,0.056-0.683-0.184l-0.559-0.968c-0.007,0.001-0.013,0.005-0.02,0.005l-0.556,0.963c-0.138,0.239-0.444,0.321-0.683,0.184c-0.24-0.139-0.322-0.444-0.184-0.684L27.008,38.503z"/>
		<path fill-rule="evenodd" clip-rule="evenodd" d="M29.616,34.125c-0.239-0.138-0.321-0.443-0.183-0.683l0.555-0.963c-0.002-0.006-0.002-0.014-0.004-0.02h-1.118c-0.276,0-0.5-0.224-0.5-0.5c0-0.275,0.224-0.5,0.5-0.5H30l-0.566-0.981c-0.139-0.239-0.057-0.546,0.183-0.683c0.239-0.139,0.546-0.057,0.683,0.182l0.568,0.982l0.567-0.982c0.138-0.238,0.443-0.32,0.683-0.182c0.239,0.137,0.321,0.443,0.183,0.683l-0.566,0.981h1.134c0.276,0,0.5,0.225,0.5,0.5c0,0.276-0.224,0.5-0.5,0.5h-1.134l0.566,0.982c0.139,0.239,0.057,0.545-0.183,0.683s-0.545,0.057-0.683-0.183l-0.56-0.968c-0.007,0-0.013,0.005-0.019,0.005l-0.558,0.963C30.162,34.182,29.855,34.263,29.616,34.125z"/>
	</g>
</svg>
