<svg viewBox="0 0 52 49" xmlns="http://www.w3.org/2000/svg">
	<path class="ew-sun" fill-rule="evenodd" clip-rule="evenodd" d="M19.998,29.998c-5.523,0-10-4.477-10-10c0-5.522,4.477-10,10-10 c5.522,0,10,4.478,10,10C29.998,25.521,25.52,29.998,19.998,29.998z"/>
	<g class="ew-sun-ray" fill="currentColor">
		<path fill-rule="evenodd" clip-rule="evenodd" d="M39,20.999h-6c-0.553,0-1-0.448-1-1c0-0.552,0.447-1,1-1h6 c0.552,0,1,0.448,1,1C40,20.55,39.552,20.999,39,20.999z"/>
		<path fill-rule="evenodd" clip-rule="evenodd" d="M29.897,11.515c-0.391,0.391-1.023,0.391-1.414,0 s-0.391-1.024,0-1.414l4.242-4.243c0.391-0.391,1.023-0.391,1.414,0s0.391,1.023,0,1.414L29.897,11.515z"/>
		<path fill-rule="evenodd" clip-rule="evenodd" d="M19.997,8c-0.552,0-1-0.448-1-1V1c0-0.553,0.448-1,1-1 s1,0.447,1,1v6C20.997,7.552,20.549,8,19.997,8z"/>
		<path fill-rule="evenodd" clip-rule="evenodd" d="M10.103,11.512L5.86,7.269c-0.391-0.391-0.391-1.023,0-1.414 c0.391-0.39,1.023-0.39,1.414,0l4.243,4.243c0.391,0.391,0.391,1.024,0,1.415C11.126,11.902,10.493,11.902,10.103,11.512z"/>
		<path fill-rule="evenodd" clip-rule="evenodd" d="M8,19.999c0,0.552-0.448,1-1,1H1c-0.552,0-1-0.448-1-1 c0-0.552,0.448-1,1-1h6C7.552,18.999,8,19.446,8,19.999z"/>
		<path fill-rule="evenodd" clip-rule="evenodd" d="M10.098,28.486c0.391-0.391,1.023-0.391,1.414,0 c0.391,0.39,0.391,1.023,0,1.414l-4.243,4.242c-0.391,0.391-1.023,0.391-1.414,0s-0.391-1.023,0-1.414L10.098,28.486z"/>
		<path fill-rule="evenodd" clip-rule="evenodd" d="M19.997,32c0.552,0,1,0.447,1,1v6c0,0.553-0.447,1-1,1 s-1-0.447-1-1v-6C18.997,32.447,19.445,32,19.997,32z"/>
		<path fill-rule="evenodd" clip-rule="evenodd" d="M29.901,28.482l4.243,4.242c0.391,0.391,0.391,1.023,0,1.414 s-1.023,0.391-1.414,0l-4.243-4.242c-0.391-0.391-0.391-1.023,0-1.414S29.51,28.091,29.901,28.482z"/>
	</g>
	<path class="ew-cloud" fill="currentColor" d="M11.394,40c-3.78,0-6.857-3.076-6.857-6.857c0-3.779,3.077-6.854,6.857-6.854c0.579,0,1.147,0.07,1.7,0.211 c1.488-3.632,5.08-6.091,9.063-6.091c0.981,0,1.942,0.144,2.868,0.428c2.051-5.492,7.379-9.245,13.305-9.245 c7.832,0,14.205,6.372,14.205,14.205c0,7.674-6.008,13.906-13.676,14.191C38.825,39.988,20.263,40,11.394,40z"/>
	<g class="ew-rain" fill="currentColor">
		<path fill-rule="evenodd" clip-rule="evenodd" d="M15.504,43.267c0.276-0.479,0.888-0.643,1.366-0.365 c0.478,0.275,0.642,0.887,0.366,1.365l-1,1.732c-0.276,0.479-0.889,0.643-1.366,0.366c-0.479-0.276-0.642-0.888-0.366-1.366 L15.504,43.267z"/>
		<path fill-rule="evenodd" clip-rule="evenodd" d="M18.504,38.071c0.276-0.479,0.888-0.642,1.366-0.366 c0.478,0.276,0.642,0.889,0.366,1.367l-1,1.731c-0.276,0.479-0.889,0.642-1.366,0.366c-0.479-0.275-0.642-0.888-0.366-1.365 L18.504,38.071z"/>
		<path fill-rule="evenodd" clip-rule="evenodd" d="M19.758,46.267c0.277-0.479,0.889-0.642,1.367-0.365 c0.479,0.275,0.643,0.887,0.365,1.365l-1,1.732c-0.275,0.479-0.888,0.643-1.365,0.367c-0.479-0.277-0.643-0.889-0.367-1.367 L19.758,46.267z"/>
		<path fill-rule="evenodd" clip-rule="evenodd" d="M20.87,35.973c-0.479-0.276-0.642-0.888-0.366-1.366l1-1.732 c0.277-0.479,0.889-0.642,1.367-0.365c0.479,0.275,0.642,0.887,0.365,1.365l-1,1.732C21.961,36.085,21.349,36.25,20.87,35.973z"/>
		<path fill-rule="evenodd" clip-rule="evenodd" d="M22.759,41.072c0.276-0.479,0.888-0.643,1.366-0.367 c0.479,0.277,0.643,0.889,0.365,1.367l-1,1.731c-0.275,0.479-0.887,0.643-1.365,0.366c-0.479-0.275-0.643-0.888-0.366-1.365 L22.759,41.072z"/>
		<path fill-rule="evenodd" clip-rule="evenodd" d="M25.759,35.875c0.276-0.479,0.888-0.643,1.367-0.365 c0.479,0.275,0.643,0.887,0.365,1.365l-1,1.732c-0.276,0.479-0.887,0.643-1.366,0.367c-0.479-0.277-0.643-0.889-0.366-1.367 L25.759,35.875z"/>
		<path fill-rule="evenodd" clip-rule="evenodd" d="M27.504,43.267c0.277-0.479,0.889-0.643,1.367-0.365 c0.479,0.275,0.641,0.887,0.365,1.365l-1,1.732c-0.275,0.479-0.887,0.643-1.365,0.366c-0.479-0.276-0.643-0.888-0.367-1.366 L27.504,43.267z"/>
		<path fill-rule="evenodd" clip-rule="evenodd" d="M30.504,38.071c0.277-0.479,0.889-0.642,1.367-0.366 c0.479,0.276,0.643,0.889,0.365,1.367l-1,1.731c-0.275,0.479-0.889,0.642-1.365,0.366c-0.479-0.275-0.643-0.888-0.367-1.365 L30.504,38.071z"/>
		<path fill-rule="evenodd" clip-rule="evenodd" d="M33.504,32.875c0.277-0.479,0.889-0.642,1.367-0.365 c0.479,0.275,0.643,0.887,0.365,1.365l-1,1.732c-0.275,0.479-0.887,0.643-1.365,0.366s-0.643-0.888-0.367-1.366L33.504,32.875z"/>
	</g>
</svg>
