<svg viewBox="0 0 48 48" xmlns="http://www.w3.org/2000/svg">
	<g class="ew-moon" fill="currentColor">
		<polygon fill-rule="evenodd" clip-rule="evenodd" points="6.665,10.211 7.123,6.618 4.585,8.915 1.253,8.126 3.283,10.995 2.932,14.618 5.486,12.336 8.812,13.147"/>
		<polygon fill-rule="evenodd" clip-rule="evenodd" points="25.313,1.902 25.556,0 24.212,1.216 22.449,0.799 23.523,2.317 23.337,4.235 24.689,3.027 26.449,3.456"/>
		<path d="M10.87,29.031c-4.224,0-8.217-2.048-10.683-5.478c-0.226-0.315-0.25-0.732-0.06-1.071 c0.189-0.339,0.55-0.533,0.948-0.514L1.24,21.98c0.179,0.012,0.358,0.025,0.54,0.025c6.126,0,11.11-4.952,11.11-11.04 c0-2.304-0.717-4.518-2.072-6.403c-0.227-0.315-0.25-0.731-0.062-1.07c0.189-0.338,0.562-0.542,0.947-0.514 C18.599,3.409,24,9.122,24,15.984C24,23.178,18.11,29.031,10.87,29.031z"/>
	</g>
	<path class="ew-cloud" fill="currentColor" d="M6.956,38.531c-3.781,0-6.857-3.076-6.857-6.857s3.077-6.855,6.857-6.855c0.579,0,1.147,0.07,1.7,0.213 c1.488-3.633,5.081-6.092,9.064-6.092c0.981,0,1.942,0.144,2.868,0.428c2.051-5.492,7.379-9.245,13.305-9.245 c7.832,0,14.205,6.372,14.205,14.204c0,7.674-6.008,13.908-13.676,14.191C34.387,38.52,15.825,38.531,6.956,38.531z"/>
	<g class="ew-rain" fill="currentColor">
		<path fill-rule="evenodd" clip-rule="evenodd" d="M11.3,41.476c0.276-0.479,0.888-0.643,1.366-0.366 c0.478,0.276,0.642,0.888,0.366,1.366l-1,1.732c-0.276,0.479-0.889,0.642-1.366,0.365c-0.479-0.275-0.642-0.887-0.366-1.365 L11.3,41.476z"/>
		<path fill-rule="evenodd" clip-rule="evenodd" d="M14.3,36.279c0.276-0.479,0.888-0.642,1.366-0.365 c0.478,0.275,0.642,0.888,0.366,1.366l-1,1.731c-0.276,0.479-0.889,0.643-1.366,0.367c-0.479-0.276-0.642-0.889-0.366-1.366 L14.3,36.279z"/>
		<path fill-rule="evenodd" clip-rule="evenodd" d="M15.554,44.476c0.277-0.479,0.889-0.643,1.367-0.366 s0.643,0.888,0.365,1.366l-1,1.732c-0.275,0.479-0.888,0.643-1.365,0.366c-0.479-0.276-0.643-0.888-0.367-1.366L15.554,44.476z"/>
		<path fill-rule="evenodd" clip-rule="evenodd" d="M16.666,34.181c-0.479-0.275-0.642-0.888-0.366-1.365l1-1.732 c0.277-0.479,0.889-0.643,1.367-0.366s0.642,0.888,0.365,1.366l-1,1.732C17.757,34.294,17.145,34.458,16.666,34.181z"/>
		<path fill-rule="evenodd" clip-rule="evenodd" d="M18.555,39.28c0.276-0.478,0.888-0.642,1.366-0.366 c0.479,0.276,0.643,0.888,0.365,1.366l-1,1.731c-0.275,0.479-0.887,0.643-1.365,0.367c-0.479-0.276-0.643-0.889-0.366-1.366 L18.555,39.28z"/>
		<path fill-rule="evenodd" clip-rule="evenodd" d="M21.555,34.083c0.276-0.479,0.888-0.643,1.366-0.366 s0.643,0.888,0.365,1.366l-1,1.732c-0.275,0.479-0.887,0.643-1.365,0.366s-0.643-0.888-0.366-1.366L21.555,34.083z"/>
		<path fill-rule="evenodd" clip-rule="evenodd" d="M23.3,41.476c0.277-0.479,0.889-0.643,1.367-0.366 c0.479,0.276,0.643,0.888,0.365,1.366l-1,1.732c-0.275,0.479-0.887,0.642-1.365,0.365c-0.479-0.275-0.643-0.887-0.367-1.365 L23.3,41.476z"/>
		<path fill-rule="evenodd" clip-rule="evenodd" d="M26.301,36.279c0.275-0.479,0.887-0.642,1.365-0.365 c0.479,0.275,0.643,0.888,0.367,1.366l-1,1.731c-0.277,0.479-0.889,0.643-1.367,0.367c-0.479-0.276-0.643-0.889-0.367-1.366 L26.301,36.279z"/>
		<path fill-rule="evenodd" clip-rule="evenodd" d="M29.301,31.083c0.275-0.479,0.887-0.643,1.365-0.366 s0.643,0.888,0.367,1.366l-1,1.732c-0.277,0.479-0.889,0.642-1.367,0.365c-0.479-0.275-0.643-0.888-0.365-1.365L29.301,31.083z"/>
	</g>
</svg>
