<svg viewBox="0 0 52 52" xmlns="http://www.w3.org/2000/svg">
	<path class="ew-sun" fill="currentColor" fill-rule="evenodd" clip-rule="evenodd" d="M19.998,29.998c-5.523,0-10-4.477-10-10c0-5.522,4.477-10,10-10 c5.522,0,10,4.478,10,10C29.998,25.521,25.52,29.998,19.998,29.998z"/>
	<g class="ew-sun-ray" fill="currentColor">
		<path fill-rule="evenodd" clip-rule="evenodd" d="M39,20.999h-6c-0.553,0-1-0.448-1-1c0-0.552,0.447-1,1-1h6 c0.552,0,1,0.448,1,1C40,20.55,39.552,20.999,39,20.999z"/>
		<path fill-rule="evenodd" clip-rule="evenodd" d="M29.897,11.515c-0.391,0.391-1.023,0.391-1.414,0 s-0.391-1.024,0-1.414l4.242-4.243c0.391-0.391,1.023-0.391,1.414,0s0.391,1.023,0,1.414L29.897,11.515z"/>
		<path fill-rule="evenodd" clip-rule="evenodd" d="M19.997,8c-0.552,0-1-0.448-1-1V1c0-0.553,0.448-1,1-1 s1,0.447,1,1v6C20.997,7.552,20.549,8,19.997,8z"/>
		<path fill-rule="evenodd" clip-rule="evenodd" d="M10.103,11.512L5.86,7.269c-0.391-0.391-0.391-1.023,0-1.414 c0.391-0.39,1.023-0.39,1.414,0l4.243,4.243c0.391,0.391,0.391,1.024,0,1.415C11.126,11.902,10.493,11.902,10.103,11.512z"/>
		<path fill-rule="evenodd" clip-rule="evenodd" d="M8,19.999c0,0.552-0.448,1-1,1H1c-0.552,0-1-0.448-1-1 c0-0.552,0.448-1,1-1h6C7.552,18.999,8,19.446,8,19.999z"/>
		<path fill-rule="evenodd" clip-rule="evenodd" d="M10.098,28.486c0.391-0.391,1.023-0.391,1.414,0 c0.391,0.39,0.391,1.023,0,1.414l-4.243,4.242c-0.391,0.391-1.023,0.391-1.414,0s-0.391-1.023,0-1.414L10.098,28.486z"/>
		<path fill-rule="evenodd" clip-rule="evenodd" d="M19.997,32c0.552,0,1,0.447,1,1v6c0,0.553-0.447,1-1,1 s-1-0.447-1-1v-6C18.997,32.447,19.445,32,19.997,32z"/>
		<path fill-rule="evenodd" clip-rule="evenodd" d="M29.901,28.482l4.243,4.242c0.391,0.391,0.391,1.023,0,1.414 s-1.023,0.391-1.414,0l-4.243-4.242c-0.391-0.391-0.391-1.023,0-1.414S29.51,28.091,29.901,28.482z"/>
	</g>
	<path class="ew-cloud" fill="currentColor" d="M11.394,40c-3.78,0-6.857-3.076-6.857-6.857c0-3.779,3.077-6.854,6.857-6.854c0.579,0,1.147,0.07,1.7,0.211 c1.488-3.632,5.08-6.091,9.063-6.091c0.981,0,1.942,0.144,2.868,0.428c2.051-5.492,7.379-9.245,13.305-9.245 c7.832,0,14.205,6.372,14.205,14.205c0,7.674-6.008,13.906-13.676,14.191C38.825,39.988,20.263,40,11.394,40z"/>
	<g class="ew-snow">
		<path fill-rule="evenodd" clip-rule="evenodd" d="M13.424,46.267h1.135l-0.567-0.981c-0.138-0.239-0.056-0.545,0.183-0.684c0.24-0.138,0.545-0.056,0.684,0.184l0.566,0.982l0.567-0.982c0.138-0.239,0.444-0.321,0.683-0.184c0.24,0.139,0.321,0.444,0.184,0.684l-0.567,0.981h1.134c0.276,0,0.5,0.224,0.5,0.501c0,0.275-0.224,0.5-0.5,0.5H16.29l0.567,0.981c0.138,0.239,0.057,0.545-0.184,0.683c-0.238,0.139-0.545,0.057-0.683-0.183l-0.56-0.968c-0.006,0-0.012,0.004-0.019,0.004l-0.556,0.964c-0.139,0.239-0.443,0.321-0.684,0.183c-0.238-0.138-0.32-0.443-0.183-0.683l0.556-0.964c-0.003-0.005-0.002-0.013-0.005-0.018h-1.118c-0.275,0-0.5-0.225-0.5-0.5C12.924,46.491,13.148,46.267,13.424,46.267z"/>
		<path fill-rule="evenodd" clip-rule="evenodd" d="M18.447,49.267h1.133l-0.566-0.981c-0.139-0.24-0.057-0.545,0.184-0.684c0.238-0.138,0.545-0.056,0.682,0.184l0.568,0.982l0.566-0.982c0.139-0.239,0.444-0.321,0.684-0.184c0.238,0.139,0.32,0.443,0.183,0.684l-0.567,0.981h1.135c0.275,0,0.5,0.224,0.5,0.501c0,0.275-0.225,0.5-0.5,0.5h-1.135l0.567,0.982c0.138,0.238,0.056,0.545-0.183,0.682c-0.239,0.139-0.545,0.057-0.684-0.182l-0.559-0.969c-0.007,0-0.013,0.005-0.02,0.005l-0.557,0.964c-0.137,0.238-0.443,0.32-0.682,0.182c-0.24-0.137-0.322-0.443-0.184-0.682l0.556-0.964c-0.003-0.005-0.002-0.013-0.005-0.019h-1.117c-0.277,0-0.5-0.225-0.5-0.5C17.947,49.491,18.17,49.267,18.447,49.267z"/>
		<path fill-rule="evenodd" clip-rule="evenodd" d="M22.16,45.943c-0.239-0.138-0.321-0.444-0.184-0.683l0.557-0.963c-0.004-0.006-0.002-0.014-0.006-0.02H21.41c-0.276,0-0.5-0.224-0.5-0.5c0-0.275,0.224-0.5,0.5-0.5h1.134l-0.567-0.982c-0.138-0.238-0.056-0.545,0.184-0.683c0.238-0.138,0.545-0.056,0.684,0.183l0.566,0.982l0.566-0.982c0.139-0.238,0.444-0.32,0.684-0.183c0.238,0.138,0.32,0.444,0.183,0.683l-0.567,0.982h1.135c0.275,0,0.5,0.225,0.5,0.5c0,0.276-0.225,0.5-0.5,0.5h-1.135l0.567,0.982c0.138,0.238,0.056,0.545-0.183,0.683c-0.239,0.138-0.545,0.056-0.684-0.183l-0.559-0.969c-0.006,0.001-0.012,0.006-0.02,0.006l-0.555,0.963C22.705,45.999,22.398,46.081,22.16,45.943z"/>
		<path fill-rule="evenodd" clip-rule="evenodd" d="M26.397,46.267h1.135l-0.566-0.981c-0.139-0.239-0.057-0.545,0.182-0.684c0.24-0.138,0.545-0.056,0.684,0.184l0.566,0.982l0.568-0.982c0.137-0.239,0.443-0.321,0.682-0.184c0.24,0.139,0.322,0.444,0.184,0.684l-0.566,0.981h1.133c0.277,0,0.502,0.224,0.502,0.501c0,0.275-0.225,0.5-0.502,0.5h-1.133l0.566,0.981c0.139,0.239,0.057,0.545-0.184,0.683c-0.238,0.139-0.545,0.057-0.682-0.183l-0.559-0.968c-0.008,0-0.014,0.004-0.02,0.004l-0.557,0.964c-0.139,0.239-0.443,0.321-0.684,0.183c-0.238-0.138-0.32-0.443-0.182-0.683l0.555-0.964c-0.002-0.005-0.002-0.013-0.004-0.018h-1.119c-0.276,0-0.5-0.225-0.5-0.5C25.897,46.491,26.121,46.267,26.397,46.267z"/>
		<path fill-rule="evenodd" clip-rule="evenodd" d="M20.919,40.778c0,0.276-0.225,0.5-0.501,0.5h-1.134l0.567,0.982c0.138,0.238,0.057,0.545-0.184,0.683c-0.238,0.138-0.545,0.056-0.683-0.183l-0.559-0.969c-0.007,0.001-0.013,0.006-0.02,0.006l-0.556,0.963c-0.139,0.238-0.443,0.32-0.684,0.183c-0.238-0.138-0.32-0.444-0.183-0.683l0.556-0.963c-0.003-0.006-0.002-0.014-0.006-0.02h-1.117c-0.275,0-0.5-0.224-0.5-0.5c0-0.277,0.225-0.5,0.5-0.5h1.135l-0.567-0.982c-0.138-0.239-0.056-0.545,0.183-0.684c0.24-0.137,0.545-0.056,0.684,0.184l0.566,0.982l0.567-0.982c0.138-0.239,0.444-0.32,0.683-0.184c0.24,0.139,0.321,0.444,0.184,0.684l-0.567,0.982h1.134C20.694,40.278,20.919,40.5,20.919,40.778z"/>
		<path fill-rule="evenodd" clip-rule="evenodd" d="M24.933,34.754c0,0.275-0.224,0.5-0.5,0.5h-1.134l0.566,0.982c0.139,0.238,0.057,0.545-0.184,0.682c-0.238,0.139-0.544,0.057-0.682-0.182l-0.56-0.969c-0.007,0-0.013,0.006-0.019,0.006l-0.557,0.963c-0.138,0.238-0.444,0.32-0.684,0.182c-0.238-0.137-0.32-0.443-0.183-0.682l0.556-0.963c-0.002-0.006-0.002-0.014-0.005-0.02h-1.118c-0.275,0-0.5-0.225-0.5-0.5c0-0.276,0.225-0.5,0.5-0.5h1.135l-0.567-0.982c-0.138-0.238-0.056-0.545,0.183-0.683c0.239-0.138,0.546-0.056,0.684,0.183l0.566,0.982L23,32.772c0.138-0.238,0.443-0.32,0.682-0.183c0.24,0.138,0.322,0.444,0.184,0.683l-0.566,0.982h1.134C24.709,34.254,24.933,34.478,24.933,34.754z"/>
		<path fill-rule="evenodd" clip-rule="evenodd" d="M29.924,37.754c0,0.275-0.225,0.5-0.5,0.5H28.29l0.566,0.982c0.139,0.238,0.057,0.545-0.182,0.682c-0.24,0.139-0.545,0.057-0.684-0.182l-0.559-0.969c-0.008,0-0.012,0.005-0.02,0.006l-0.557,0.963c-0.137,0.238-0.443,0.32-0.682,0.182c-0.239-0.137-0.321-0.443-0.184-0.682l0.557-0.963c-0.004-0.006-0.002-0.014-0.006-0.02h-1.118c-0.276,0-0.5-0.225-0.5-0.5c0-0.276,0.224-0.5,0.5-0.5h1.133l-0.567-0.982c-0.138-0.238-0.056-0.545,0.184-0.684c0.239-0.137,0.545-0.055,0.682,0.184l0.568,0.982l0.566-0.982c0.139-0.238,0.443-0.32,0.684-0.184c0.238,0.139,0.32,0.445,0.182,0.684l-0.566,0.982h1.135C29.7,37.254,29.924,37.478,29.924,37.754z"/>
		<path fill-rule="evenodd" clip-rule="evenodd" d="M31.547,41.297c-0.004-0.006-0.004-0.014-0.006-0.02h-1.119c-0.275,0-0.5-0.224-0.5-0.5c0-0.277,0.225-0.5,0.5-0.5h1.135l-0.566-0.982c-0.139-0.239-0.057-0.545,0.184-0.684c0.238-0.137,0.545-0.056,0.682,0.184l0.568,0.982l0.566-0.982c0.137-0.239,0.443-0.32,0.682-0.184c0.24,0.139,0.322,0.444,0.184,0.684l-0.566,0.982h1.135c0.275,0,0.5,0.223,0.5,0.5c0,0.276-0.225,0.5-0.5,0.5H33.29l0.566,0.982c0.139,0.238,0.057,0.545-0.184,0.683c-0.238,0.138-0.545,0.056-0.682-0.183l-0.559-0.969c-0.008,0.001-0.014,0.006-0.02,0.006l-0.557,0.963c-0.137,0.238-0.443,0.32-0.682,0.183c-0.24-0.138-0.322-0.444-0.184-0.683L31.547,41.297z"/>
		<path fill-rule="evenodd" clip-rule="evenodd" d="M34.155,36.918c-0.238-0.137-0.32-0.443-0.182-0.682l0.555-0.963c-0.002-0.006-0.002-0.014-0.004-0.02h-1.119c-0.275,0-0.5-0.225-0.5-0.5c0-0.276,0.225-0.5,0.5-0.5h1.135l-0.566-0.982c-0.139-0.238-0.057-0.545,0.182-0.683c0.24-0.138,0.547-0.056,0.684,0.183l0.568,0.982l0.566-0.982c0.139-0.238,0.443-0.32,0.684-0.183c0.238,0.138,0.32,0.444,0.182,0.683l-0.566,0.982h1.135c0.275,0,0.5,0.224,0.5,0.5c0,0.275-0.225,0.5-0.5,0.5h-1.135l0.566,0.982c0.139,0.238,0.057,0.545-0.182,0.682c-0.24,0.139-0.545,0.057-0.684-0.182l-0.559-0.969c-0.008,0-0.014,0.006-0.02,0.006l-0.557,0.963C34.702,36.975,34.395,37.057,34.155,36.918z"/>
	</g>
</svg>
