<svg viewBox="0 0 40 40" xmlns="http://www.w3.org/2000/svg">
	<path class="ew-sun" fill="currentColor" fill-rule="evenodd" clip-rule="evenodd" d="M19.998,10.248c-5.523,0-10,4.478-10,10c0,5.523,4.477,10,10,10s10-4.477,10-10 C29.998,14.725,25.521,10.248,19.998,10.248z M19.998,28.248c-4.418,0-8-3.581-8-8c0-4.417,3.582-8,8-8s8,3.582,8,8 C27.998,24.667,24.416,28.248,19.998,28.248z"/>
	<g class="ew-sun-ray" fill="currentColor">
		<path fill-rule="evenodd" clip-rule="evenodd" d="M39,20.999h-6c-0.553,0-1-0.448-1-1c0-0.552,0.447-1,1-1h6 c0.552,0,1,0.448,1,1C40,20.55,39.552,20.999,39,20.999z"/>
		<path fill-rule="evenodd" clip-rule="evenodd" d="M29.897,11.515c-0.391,0.391-1.023,0.391-1.414,0 s-0.391-1.024,0-1.414l4.242-4.243c0.391-0.391,1.023-0.391,1.414,0s0.391,1.023,0,1.414L29.897,11.515z"/>
		<path fill-rule="evenodd" clip-rule="evenodd" d="M19.997,8c-0.552,0-1-0.448-1-1V1c0-0.553,0.448-1,1-1 s1,0.447,1,1v6C20.997,7.552,20.549,8,19.997,8z"/>
		<path fill-rule="evenodd" clip-rule="evenodd" d="M10.103,11.512L5.86,7.269c-0.391-0.391-0.391-1.023,0-1.414 c0.391-0.39,1.023-0.39,1.414,0l4.243,4.243c0.391,0.391,0.391,1.024,0,1.415C11.126,11.902,10.493,11.902,10.103,11.512z"/>
		<path fill-rule="evenodd" clip-rule="evenodd" d="M8,19.999c0,0.552-0.448,1-1,1H1c-0.552,0-1-0.448-1-1 c0-0.552,0.448-1,1-1h6C7.552,18.999,8,19.446,8,19.999z"/>
		<path fill-rule="evenodd" clip-rule="evenodd" d="M10.098,28.486c0.391-0.391,1.023-0.391,1.414,0 c0.391,0.39,0.391,1.023,0,1.414l-4.243,4.242c-0.391,0.391-1.023,0.391-1.414,0s-0.391-1.023,0-1.414L10.098,28.486z"/>
		<path fill-rule="evenodd" clip-rule="evenodd" d="M19.997,32c0.552,0,1,0.447,1,1v6c0,0.553-0.447,1-1,1 s-1-0.447-1-1v-6C18.997,32.447,19.445,32,19.997,32z"/>
		<path fill-rule="evenodd" clip-rule="evenodd" d="M29.901,28.482l4.243,4.242c0.391,0.391,0.391,1.023,0,1.414 s-1.023,0.391-1.414,0l-4.243-4.242c-0.391-0.391-0.391-1.023,0-1.414S29.51,28.091,29.901,28.482z"/>
	</g>
</svg>
