<svg viewBox="0 0 54 50" xmlns="http://www.w3.org/2000/svg">
	<path fill="currentColor" fill-rule="evenodd" clip-rule="evenodd" d="M40.038,38.99c-0.006,0-0.749,0-1.984,0.001c-0.02,0.001-0.035,0.011-0.055,0.011 c-0.553,0-1-0.447-1-1s0.447-1,1-1l0,0v-0.011c1.255-0.001,2.002-0.001,2.002-0.001c6.713-0.249,11.998-5.735,11.998-12.488 c0-6.894-5.609-12.501-12.502-12.501c-5.522,0-10.457,3.705-11.998,9.009c-0.08,0.275-0.274,0.503-0.533,0.625 c-0.26,0.123-0.559,0.129-0.822,0.014c-1.001-0.43-2.063-0.648-3.156-0.648c-3.532,0-6.689,2.369-7.678,5.76 c-0.08,0.275-0.273,0.502-0.531,0.625c-0.26,0.122-0.557,0.129-0.821,0.016c-0.62-0.266-1.279-0.399-1.959-0.399 c-2.757,0-5.001,2.243-5.001,4.999c0,2.757,2.244,5,5.001,5c0.622,0,1.294,0,2,0l0,0c0.552,0,1,0.447,1,1s-0.448,1-1,1 c-0.001,0-0.001,0-0.001,0c-0.705,0-1.377,0-1.999,0c-3.86,0-7.001-3.141-7.001-7c0-3.66,2.834-6.638,6.417-6.939 C10.53,23.574,9.998,21.855,9.998,20c0-5.523,4.478-10.001,10.001-10.001c3.68,0,6.873,2.002,8.609,4.962 C31.308,11.895,35.249,10,39.497,10C47.493,10,54,16.505,54,24.502C54,32.336,47.867,38.699,40.038,38.99z M19.999,11.999 c-4.419,0-8.001,3.582-8.001,8c0,1.918,0.704,3.653,1.83,5.031c1.567-3.599,5.165-6.029,9.159-6.029 c1.002,0,1.982,0.146,2.928,0.437c0.359-0.962,0.822-1.867,1.365-2.714C26.028,13.942,23.247,11.999,19.999,11.999z"/>
	<g class="ew-sun-ray-half" fill="currentColor">
		<path fill-rule="evenodd" clip-rule="evenodd" d="M29.898,11.515c-0.391,0.391-1.025,0.391-1.414,0 c-0.391-0.391-0.391-1.023,0-1.414l4.243-4.244c0.39-0.39,1.023-0.39,1.414,0c0.391,0.391,0.391,1.024,0,1.415L29.898,11.515z"/>
		<path fill-rule="evenodd" clip-rule="evenodd" d="M19.998,8c-0.552,0-1-0.448-1-1V1c0-0.552,0.448-1,1-1s1,0.448,1,1v6 C20.998,7.552,20.55,8,19.998,8z"/>
		<path fill-rule="evenodd" clip-rule="evenodd" d="M10.103,11.512L5.86,7.269c-0.391-0.39-0.391-1.023,0-1.415 c0.391-0.391,1.023-0.391,1.414,0l4.243,4.243c0.391,0.391,0.391,1.024,0,1.415S10.494,11.903,10.103,11.512z"/>
		<path fill-rule="evenodd" clip-rule="evenodd" d="M8,19.999c0,0.553-0.448,1-1,1H1c-0.552,0-1-0.447-1-1C0,19.447,0.448,19,1,19h6 C7.553,19,8,19.447,8,19.999z"/>
	</g>
	<g class="ew-snow" fill="currentColor">
		<path fill-rule="evenodd" clip-rule="evenodd" d="M14.302,44.082h1.135l-0.567-0.98c-0.138-0.24-0.056-0.546,0.183-0.684c0.24-0.139,0.545-0.057,0.684,0.184l0.566,0.981l0.567-0.981c0.138-0.24,0.444-0.322,0.683-0.184c0.24,0.138,0.321,0.443,0.184,0.684l-0.567,0.98h1.134c0.276,0,0.5,0.225,0.5,0.501s-0.224,0.5-0.5,0.5h-1.134l0.567,0.981c0.138,0.24,0.057,0.545-0.184,0.684c-0.238,0.138-0.545,0.057-0.683-0.184l-0.56-0.967c-0.006,0-0.012,0.004-0.019,0.004l-0.556,0.963c-0.139,0.24-0.443,0.321-0.684,0.184c-0.238-0.139-0.32-0.443-0.183-0.684l0.556-0.963c-0.003-0.006-0.002-0.014-0.005-0.019h-1.118c-0.275,0-0.5-0.224-0.5-0.5S14.026,44.082,14.302,44.082z"/>
		<path fill-rule="evenodd" clip-rule="evenodd" d="M19.325,47.082h1.133L19.892,46.1c-0.139-0.239-0.057-0.545,0.184-0.683c0.238-0.139,0.545-0.057,0.682,0.183l0.568,0.982l0.566-0.982c0.139-0.239,0.444-0.321,0.684-0.183c0.238,0.138,0.32,0.443,0.183,0.683l-0.567,0.981h1.135c0.275,0,0.5,0.225,0.5,0.501s-0.225,0.5-0.5,0.5H22.19l0.567,0.982c0.138,0.239,0.056,0.545-0.183,0.683c-0.239,0.139-0.545,0.057-0.684-0.183l-0.559-0.968c-0.007,0-0.013,0.004-0.02,0.004l-0.557,0.964c-0.137,0.239-0.443,0.321-0.682,0.183c-0.24-0.138-0.322-0.443-0.184-0.683l0.556-0.964c-0.003-0.005-0.002-0.013-0.005-0.019h-1.117c-0.277,0-0.5-0.224-0.5-0.5S19.048,47.082,19.325,47.082z"/>
		<path fill-rule="evenodd" clip-rule="evenodd" d="M23.038,43.757c-0.239-0.137-0.321-0.443-0.184-0.683l0.557-0.963c-0.004-0.006-0.002-0.013-0.006-0.019h-1.117c-0.276,0-0.5-0.225-0.5-0.5c0-0.276,0.224-0.5,0.5-0.5h1.134l-0.567-0.982c-0.138-0.239-0.056-0.545,0.184-0.684c0.238-0.138,0.545-0.056,0.684,0.184l0.566,0.982l0.566-0.982c0.139-0.239,0.444-0.321,0.684-0.184c0.238,0.139,0.32,0.444,0.183,0.684l-0.567,0.982h1.135c0.275,0,0.5,0.224,0.5,0.5c0,0.275-0.225,0.5-0.5,0.5h-1.135l0.567,0.981c0.138,0.239,0.056,0.546-0.183,0.683c-0.239,0.139-0.545,0.057-0.684-0.183l-0.559-0.968c-0.006,0-0.012,0.005-0.02,0.005l-0.555,0.963C23.583,43.814,23.276,43.896,23.038,43.757z"/>
		<path fill-rule="evenodd" clip-rule="evenodd" d="M27.275,44.082h1.134l-0.566-0.98c-0.139-0.24-0.057-0.546,0.183-0.684c0.239-0.139,0.545-0.057,0.683,0.184l0.567,0.981l0.567-0.981c0.138-0.24,0.443-0.322,0.683-0.184c0.239,0.138,0.321,0.443,0.183,0.684l-0.566,0.98h1.134c0.276,0,0.501,0.225,0.501,0.501s-0.225,0.5-0.501,0.5h-1.134l0.566,0.981c0.139,0.24,0.057,0.545-0.183,0.684c-0.239,0.138-0.545,0.057-0.683-0.184l-0.559-0.967c-0.008,0-0.014,0.004-0.02,0.004l-0.557,0.963c-0.138,0.24-0.443,0.321-0.683,0.184c-0.239-0.139-0.321-0.443-0.183-0.684l0.556-0.963c-0.003-0.006-0.003-0.014-0.005-0.019h-1.118c-0.276,0-0.5-0.224-0.5-0.5S26.999,44.082,27.275,44.082z"/>
		<path fill-rule="evenodd" clip-rule="evenodd" d="M21.797,38.593c0,0.275-0.225,0.5-0.501,0.5h-1.134l0.567,0.981c0.138,0.239,0.057,0.545-0.184,0.683c-0.238,0.139-0.545,0.057-0.683-0.183l-0.559-0.968c-0.007,0-0.013,0.005-0.02,0.005l-0.556,0.963c-0.139,0.239-0.443,0.321-0.684,0.183c-0.238-0.138-0.32-0.443-0.183-0.683l0.556-0.963c-0.003-0.006-0.002-0.013-0.006-0.019h-1.117c-0.275,0-0.5-0.225-0.5-0.5c0-0.277,0.225-0.501,0.5-0.501h1.135l-0.567-0.981c-0.138-0.24-0.056-0.545,0.183-0.684c0.24-0.138,0.545-0.057,0.684,0.184l0.566,0.981l0.567-0.981c0.138-0.24,0.444-0.321,0.683-0.184c0.24,0.139,0.321,0.443,0.184,0.684l-0.567,0.981h1.134C21.572,38.092,21.797,38.316,21.797,38.593z"/>
		<path fill-rule="evenodd" clip-rule="evenodd" d="M25.811,32.569c0,0.276-0.224,0.501-0.5,0.501h-1.134l0.566,0.981c0.139,0.239,0.057,0.545-0.184,0.683c-0.238,0.139-0.544,0.057-0.682-0.183l-0.56-0.968c-0.007,0-0.013,0.005-0.019,0.005l-0.557,0.963c-0.138,0.239-0.444,0.321-0.684,0.183c-0.238-0.138-0.32-0.443-0.183-0.683l0.556-0.963c-0.002-0.006-0.002-0.014-0.005-0.019H21.31c-0.275,0-0.5-0.225-0.5-0.501s0.225-0.5,0.5-0.5h1.135l-0.567-0.981c-0.138-0.239-0.056-0.545,0.183-0.684c0.239-0.138,0.546-0.056,0.684,0.184l0.566,0.982l0.568-0.982c0.138-0.239,0.443-0.321,0.682-0.184c0.24,0.139,0.322,0.444,0.184,0.684l-0.566,0.981h1.134C25.587,32.069,25.811,32.292,25.811,32.569z"/>
		<path fill-rule="evenodd" clip-rule="evenodd" d="M30.802,35.569c0,0.276-0.225,0.5-0.5,0.5h-1.135l0.567,0.982c0.138,0.239,0.056,0.545-0.183,0.683c-0.239,0.139-0.545,0.057-0.684-0.183l-0.559-0.968c-0.007,0-0.012,0.004-0.02,0.005l-0.556,0.963c-0.138,0.239-0.444,0.321-0.683,0.183c-0.239-0.138-0.321-0.443-0.184-0.683l0.557-0.963c-0.004-0.006-0.002-0.014-0.006-0.02h-1.117c-0.276,0-0.5-0.224-0.5-0.5s0.224-0.499,0.5-0.499h1.134l-0.567-0.982c-0.138-0.239-0.056-0.545,0.184-0.684c0.238-0.138,0.545-0.056,0.683,0.184l0.567,0.982l0.566-0.982c0.139-0.239,0.444-0.321,0.684-0.184c0.238,0.139,0.32,0.444,0.183,0.684l-0.567,0.982h1.135C30.577,35.07,30.802,35.292,30.802,35.569z"/>
		<path fill-rule="evenodd" clip-rule="evenodd" d="M32.425,39.112c-0.004-0.006-0.003-0.013-0.006-0.019h-1.118c-0.276,0-0.5-0.225-0.5-0.5c0-0.277,0.224-0.501,0.5-0.501h1.134l-0.566-0.981c-0.139-0.24-0.057-0.545,0.184-0.684c0.238-0.138,0.545-0.057,0.683,0.184l0.567,0.981l0.566-0.981c0.138-0.24,0.443-0.321,0.683-0.184c0.239,0.139,0.321,0.443,0.183,0.684l-0.566,0.981h1.135c0.275,0,0.5,0.224,0.5,0.501c0,0.275-0.225,0.5-0.5,0.5h-1.135l0.566,0.981c0.139,0.239,0.057,0.545-0.183,0.683c-0.239,0.139-0.545,0.057-0.683-0.183l-0.559-0.968c-0.007,0-0.013,0.005-0.02,0.005l-0.556,0.963c-0.138,0.239-0.444,0.321-0.683,0.183c-0.24-0.138-0.322-0.443-0.184-0.683L32.425,39.112z"/>
		<path fill-rule="evenodd" clip-rule="evenodd" d="M35.033,34.734c-0.239-0.138-0.321-0.443-0.183-0.683l0.555-0.963c-0.002-0.006-0.002-0.014-0.004-0.019h-1.118c-0.276,0-0.5-0.225-0.5-0.501s0.224-0.5,0.5-0.5h1.134l-0.566-0.981c-0.139-0.239-0.057-0.545,0.183-0.684c0.239-0.138,0.546-0.056,0.683,0.184l0.568,0.982l0.567-0.982c0.138-0.239,0.443-0.321,0.683-0.184c0.239,0.139,0.321,0.444,0.183,0.684l-0.566,0.981h1.134c0.276,0,0.5,0.224,0.5,0.5s-0.224,0.501-0.5,0.501H37.15l0.566,0.981c0.139,0.239,0.057,0.545-0.183,0.683c-0.239,0.139-0.545,0.057-0.683-0.183l-0.56-0.968c-0.007,0-0.013,0.005-0.019,0.005l-0.558,0.963C35.579,34.791,35.272,34.873,35.033,34.734z"/>
	</g>
</svg>
