<svg viewBox="0 0 54 48" xmlns="http://www.w3.org/2000/svg">
	<path fill="currentColor" fill-rule="evenodd" clip-rule="evenodd" d="M40.038,38.99c-0.006,0-0.749,0-1.984,0.001c-0.02,0.001-0.035,0.011-0.055,0.011 c-0.553,0-1-0.447-1-1s0.447-1,1-1l0,0v-0.011c1.255-0.001,2.002-0.001,2.002-0.001c6.713-0.249,11.998-5.735,11.998-12.488 c0-6.894-5.609-12.501-12.502-12.501c-5.522,0-10.457,3.705-11.998,9.009c-0.08,0.275-0.274,0.503-0.533,0.625 c-0.26,0.123-0.559,0.129-0.822,0.014c-1.001-0.43-2.063-0.648-3.156-0.648c-3.532,0-6.689,2.369-7.678,5.76 c-0.08,0.275-0.273,0.502-0.531,0.625c-0.26,0.122-0.557,0.129-0.821,0.016c-0.62-0.266-1.279-0.399-1.959-0.399 c-2.757,0-5.001,2.243-5.001,4.999c0,2.757,2.244,5,5.001,5c0.622,0,1.294,0,2,0l0,0c0.552,0,1,0.447,1,1s-0.448,1-1,1 c-0.001,0-0.001,0-0.001,0c-0.705,0-1.377,0-1.999,0c-3.86,0-7.001-3.141-7.001-7c0-3.66,2.834-6.638,6.417-6.939 C10.53,23.574,9.998,21.855,9.998,20c0-5.523,4.478-10.001,10.001-10.001c3.68,0,6.873,2.002,8.609,4.962 C31.308,11.895,35.249,10,39.497,10C47.493,10,54,16.505,54,24.502C54,32.336,47.867,38.699,40.038,38.99z M19.999,11.999 c-4.419,0-8.001,3.582-8.001,8c0,1.918,0.704,3.653,1.83,5.031c1.567-3.599,5.165-6.029,9.159-6.029 c1.002,0,1.982,0.146,2.928,0.437c0.359-0.962,0.822-1.867,1.365-2.714C26.028,13.942,23.247,11.999,19.999,11.999z"/>
	<g class="ew-sun-ray-half" fill="currentColor">
		<path fill-rule="evenodd" clip-rule="evenodd" d="M29.898,11.515c-0.391,0.391-1.025,0.391-1.414,0 c-0.391-0.391-0.391-1.023,0-1.414l4.243-4.244c0.39-0.39,1.023-0.39,1.414,0c0.391,0.391,0.391,1.024,0,1.415L29.898,11.515z"/>
		<path fill-rule="evenodd" clip-rule="evenodd" d="M19.998,8c-0.552,0-1-0.448-1-1V1c0-0.552,0.448-1,1-1s1,0.448,1,1v6 C20.998,7.552,20.55,8,19.998,8z"/>
		<path fill-rule="evenodd" clip-rule="evenodd" d="M10.103,11.512L5.86,7.269c-0.391-0.39-0.391-1.023,0-1.415 c0.391-0.391,1.023-0.391,1.414,0l4.243,4.243c0.391,0.391,0.391,1.024,0,1.415S10.494,11.903,10.103,11.512z"/>
		<path fill-rule="evenodd" clip-rule="evenodd" d="M8,19.999c0,0.553-0.448,1-1,1H1c-0.552,0-1-0.447-1-1C0,19.447,0.448,19,1,19h6 C7.553,19,8,19.447,8,19.999z"/>
	</g>
	<g class="ew-rain" fill="currentColor">
		<path fill-rule="evenodd" clip-rule="evenodd" d="M16.632,41.832c0.276-0.479,0.888-0.643,1.366-0.365 c0.478,0.275,0.642,0.887,0.366,1.365l-1,1.732c-0.276,0.479-0.889,0.643-1.366,0.366c-0.479-0.276-0.642-0.888-0.366-1.366 L16.632,41.832z"/>
		<path fill-rule="evenodd" clip-rule="evenodd" d="M19.632,36.636c0.276-0.479,0.888-0.642,1.366-0.366 c0.478,0.276,0.642,0.889,0.366,1.367l-1,1.731c-0.276,0.479-0.889,0.642-1.366,0.366c-0.479-0.275-0.642-0.888-0.366-1.365 L19.632,36.636z"/>
		<path fill-rule="evenodd" clip-rule="evenodd" d="M20.886,44.832c0.277-0.479,0.889-0.642,1.367-0.365 c0.479,0.275,0.643,0.887,0.365,1.365l-1,1.732c-0.275,0.479-0.888,0.643-1.365,0.367c-0.479-0.277-0.643-0.889-0.367-1.367 L20.886,44.832z"/>
		<path fill-rule="evenodd" clip-rule="evenodd" d="M21.998,34.538c-0.479-0.276-0.642-0.888-0.366-1.366l1-1.732 c0.277-0.479,0.889-0.642,1.367-0.365c0.479,0.275,0.642,0.887,0.365,1.365l-1,1.732C23.089,34.65,22.477,34.814,21.998,34.538z"/>
		<path fill-rule="evenodd" clip-rule="evenodd" d="M23.887,39.637c0.276-0.479,0.888-0.643,1.366-0.367 c0.479,0.277,0.643,0.889,0.365,1.367l-1,1.731c-0.275,0.479-0.887,0.643-1.365,0.366c-0.479-0.275-0.643-0.888-0.366-1.365 L23.887,39.637z"/>
		<path fill-rule="evenodd" clip-rule="evenodd" d="M26.887,34.439c0.276-0.479,0.888-0.643,1.366-0.365 c0.479,0.275,0.643,0.887,0.365,1.365l-1,1.732c-0.275,0.479-0.887,0.643-1.365,0.367c-0.479-0.277-0.643-0.889-0.366-1.367 L26.887,34.439z"/>
		<path fill-rule="evenodd" clip-rule="evenodd" d="M28.632,41.832c0.277-0.479,0.889-0.643,1.367-0.365 c0.479,0.275,0.642,0.887,0.365,1.365l-1,1.732c-0.275,0.479-0.887,0.643-1.365,0.366s-0.643-0.888-0.367-1.366L28.632,41.832z"/>
		<path fill-rule="evenodd" clip-rule="evenodd" d="M31.633,36.636c0.276-0.479,0.888-0.642,1.366-0.366 c0.479,0.276,0.643,0.889,0.366,1.367l-1,1.731c-0.276,0.479-0.889,0.642-1.366,0.366c-0.479-0.275-0.643-0.888-0.367-1.365 L31.633,36.636z"/>
		<path fill-rule="evenodd" clip-rule="evenodd" d="M34.633,31.439c0.276-0.479,0.888-0.642,1.366-0.365 c0.479,0.275,0.643,0.887,0.366,1.365l-1,1.732c-0.276,0.479-0.888,0.643-1.366,0.366s-0.643-0.888-0.366-1.366L34.633,31.439z"/>
	</g>
</svg>
