<svg viewBox="0 0 48 28" xmlns="http://www.w3.org/2000/svg">
	<path class="ew-cloud" fill="currentColor" d="M33.794,0C27.868,0,22.54,3.752,20.489,9.245c-0.926-0.285-1.887-0.428-2.868-0.428c-3.983,0-7.576,2.459-9.064,6.092 c-0.552-0.142-1.121-0.212-1.7-0.212C3.077,14.696,0,17.771,0,21.551c0,3.781,3.077,6.857,6.857,6.857 c8.869,0,27.432-0.012,27.467-0.013C41.992,28.111,48,21.878,48,14.204C48,6.372,41.627,0,33.794,0z M34.287,26.438 c0,0-18.561,0.012-27.43,0.012c-2.7,0-4.898-2.197-4.898-4.898c0-2.699,2.198-4.896,4.898-4.896c0.666,0,1.311,0.13,1.919,0.39 c0.259,0.111,0.55,0.105,0.804-0.015c0.253-0.121,0.443-0.343,0.521-0.612c0.968-3.322,4.061-5.643,7.52-5.643 c1.072,0,2.112,0.214,3.092,0.635c0.259,0.112,0.552,0.107,0.805-0.014c0.254-0.119,0.444-0.343,0.523-0.613 c1.51-5.195,6.342-8.825,11.752-8.825c6.752,0,12.247,5.493,12.247,12.245C46.041,20.82,40.862,26.193,34.287,26.438z"/>
</svg>
