<svg viewBox="0 0 48 38" xmlns="http://www.w3.org/2000/svg">
	<path class="ew-cloud" fill="currentColor" fill-rule="evenodd" clip-rule="evenodd" d="M34.325,28.396c-0.007,0-0.734,0.001-1.944,0.002c-0.02,0-0.035,0.01-0.054,0.01c-0.542,0-0.979-0.438-0.979-0.979s0.438-0.98,0.979-0.98v-0.01c1.229-0.001,1.961-0.002,1.961-0.002c6.575-0.243,11.753-5.617,11.753-12.233c0-6.751-5.494-12.245-12.246-12.245c-5.41,0-10.243,3.629-11.753,8.825c-0.079,0.27-0.268,0.493-0.522,0.613c-0.253,0.121-0.546,0.126-0.806,0.014c-0.98-0.421-2.021-0.635-3.092-0.635c-3.459,0-6.552,2.32-7.52,5.643c-0.079,0.27-0.268,0.492-0.521,0.612c-0.253,0.119-0.544,0.126-0.803,0.016c-0.608-0.261-1.252-0.392-1.918-0.392c-2.701,0-4.899,2.197-4.899,4.897s2.198,4.897,4.899,4.897c0.608,0,1.267,0,1.958,0l0,0c0.541,0,0.979,0.439,0.979,0.98s-0.439,0.979-0.979,0.979H8.815c-0.691,0-1.349,0-1.958,0C3.077,28.408,0,25.332,0,21.551s3.077-6.856,6.858-6.856c0.579,0,1.147,0.071,1.699,0.212c1.488-3.632,5.082-6.091,9.064-6.091c0.981,0,1.942,0.144,2.868,0.428C22.54,3.752,27.869,0,33.794,0C41.626,0,48,6.372,48,14.204C48,21.878,41.992,28.112,34.325,28.396z"/>
	<path class="ew-lighting" fill-rule="evenodd" clip-rule="evenodd" fill="currentColor" d="M11.791,27.39c0.545-0.873,4.891-7.833,4.891-7.833 c0.139-0.221,0.427-0.293,0.655-0.16c0.226,0.131,0.311,0.409,0.197,0.639l-2.878,6.144c0,0,2.973,0.005,2.415,0.005 c0.085-0.001,0.167,0.019,0.248,0.063c0.241,0.133,0.338,0.446,0.2,0.68c-0.545,0.873-4.89,7.833-4.89,7.833 c-0.139,0.221-0.428,0.293-0.656,0.159c-0.225-0.131-0.31-0.408-0.196-0.638l2.878-6.144c0,0-3.086-0.006-2.415-0.006 c-0.085,0.002-0.167-0.018-0.248-0.063C11.75,27.937,11.653,27.624,11.791,27.39z"/>
	<g class="ew-rain" fill="currentColor">
		<path fill-rule="evenodd" clip-rule="evenodd" d="M16.58,35.242c0.271-0.469,0.87-0.629,1.338-0.358 c0.468,0.271,0.628,0.87,0.358,1.339l-0.979,1.696c-0.271,0.469-0.871,0.629-1.338,0.358c-0.469-0.271-0.628-0.869-0.358-1.338 L16.58,35.242z"/>
		<path fill-rule="evenodd" clip-rule="evenodd" d="M19.519,30.152c0.271-0.469,0.87-0.629,1.338-0.359 c0.468,0.271,0.629,0.87,0.359,1.339l-0.979,1.696c-0.271,0.469-0.871,0.629-1.338,0.359c-0.469-0.271-0.628-0.869-0.359-1.338 L19.519,30.152z"/>
		<path fill-rule="evenodd" clip-rule="evenodd" d="M23.808,32.548c0.272-0.469,0.871-0.629,1.339-0.359 c0.469,0.271,0.63,0.87,0.358,1.339l-0.98,1.697c-0.27,0.468-0.869,0.629-1.337,0.358c-0.469-0.271-0.629-0.869-0.36-1.338 L23.808,32.548z"/>
		<path fill-rule="evenodd" clip-rule="evenodd" d="M21.837,28.097c-0.469-0.271-0.629-0.871-0.359-1.339 l0.979-1.697c0.272-0.468,0.871-0.628,1.339-0.358c0.469,0.271,0.629,0.87,0.357,1.338l-0.979,1.697 C22.905,28.207,22.306,28.367,21.837,28.097z"/>
		<path fill-rule="evenodd" clip-rule="evenodd" d="M26.748,27.458c0.271-0.469,0.869-0.629,1.338-0.359 c0.469,0.271,0.63,0.869,0.358,1.338l-0.979,1.697c-0.27,0.469-0.869,0.629-1.338,0.359c-0.469-0.271-0.629-0.87-0.358-1.338 L26.748,27.458z"/>
		<path fill-rule="evenodd" clip-rule="evenodd" d="M29.688,22.367c0.27-0.468,0.869-0.629,1.338-0.357 c0.469,0.27,0.629,0.869,0.357,1.338l-0.979,1.697c-0.27,0.469-0.868,0.629-1.337,0.359c-0.469-0.271-0.63-0.871-0.359-1.34 L29.688,22.367z"/>
	</g>
</svg>
