<svg viewBox="0 0 44 30" xmlns="http://www.w3.org/2000/svg">
	<g class="ew-moon" fill="currentColor">
		<polygon fill-rule="evenodd" clip-rule="evenodd" points="15.665,10.211 16.123,6.618 13.585,8.915 10.253,8.126 12.283,10.995 11.932,14.618 14.486,12.336 17.812,13.147"/>
		<polygon fill-rule="evenodd" clip-rule="evenodd" points="34.313,1.902 34.557,0 33.212,1.216 31.449,0.799 32.523,2.317 32.337,4.235 33.689,3.027 35.449,3.456"/>
		<path d="M19.87,29.031c-4.224,0-8.217-2.049-10.683-5.479c-0.226-0.314-0.25-0.732-0.06-1.07c0.189-0.34,0.55-0.533,0.948-0.515l0.165,0.013c0.179,0.012,0.358,0.024,0.54,0.024c6.126,0,11.111-4.952,11.111-11.04c0-2.304-0.718-4.518-2.073-6.403c-0.227-0.315-0.25-0.731-0.062-1.07c0.189-0.338,0.562-0.542,0.947-0.514C27.6,3.409,33,9.122,33,15.984C33,23.178,27.109,29.031,19.87,29.031z"/>
	</g>
</svg>
