<svg viewBox="0 0 48 49" xmlns="http://www.w3.org/2000/svg">
	<g class="ew-moon" fill="currentColor">
		<polygon fill-rule="evenodd" clip-rule="evenodd" points="6.665,10.211 7.123,6.618 4.585,8.915 1.253,8.126 3.283,10.995 2.932,14.618 5.486,12.336 8.812,13.147"/>
		<polygon fill-rule="evenodd" clip-rule="evenodd" points="25.313,1.902 25.556,0 24.212,1.216 22.449,0.799 23.523,2.317 23.337,4.235 24.689,3.027 26.449,3.456"/>
		<path d="M10.87,29.031c-4.224,0-8.217-2.048-10.683-5.478c-0.226-0.315-0.25-0.732-0.06-1.071 c0.189-0.339,0.55-0.533,0.948-0.514L1.24,21.98c0.179,0.012,0.358,0.025,0.54,0.025c6.126,0,11.11-4.952,11.11-11.04 c0-2.304-0.717-4.518-2.072-6.403c-0.227-0.315-0.25-0.731-0.062-1.07c0.189-0.338,0.562-0.542,0.947-0.514 C18.599,3.409,24,9.122,24,15.984C24,23.178,18.11,29.031,10.87,29.031z"/>
	</g>
	<path class="ew-cloud" fill="currentColor" d="M6.956,38.531c-3.781,0-6.857-3.076-6.857-6.857s3.077-6.855,6.857-6.855c0.579,0,1.147,0.07,1.7,0.213 c1.488-3.633,5.081-6.092,9.064-6.092c0.981,0,1.942,0.144,2.868,0.428c2.051-5.492,7.379-9.245,13.305-9.245 c7.832,0,14.205,6.372,14.205,14.204c0,7.674-6.008,13.908-13.676,14.191C34.387,38.52,15.825,38.531,6.956,38.531z"/>
	<g class="ew-snow">
		<path fill-rule="evenodd" clip-rule="evenodd" d="M9.135,43.166h1.135l-0.567-0.981c-0.138-0.239-0.056-0.545,0.183-0.684c0.24-0.138,0.545-0.056,0.684,0.184l0.566,0.982l0.567-0.982c0.138-0.239,0.444-0.321,0.683-0.184c0.24,0.139,0.321,0.444,0.184,0.684l-0.567,0.981h1.134c0.276,0,0.5,0.224,0.5,0.501c0,0.275-0.224,0.5-0.5,0.5h-1.134l0.567,0.981c0.138,0.239,0.057,0.545-0.184,0.683c-0.238,0.139-0.545,0.057-0.683-0.183l-0.56-0.968c-0.006,0-0.012,0.004-0.019,0.004l-0.556,0.964c-0.139,0.239-0.443,0.321-0.684,0.183c-0.238-0.138-0.32-0.443-0.183-0.683l0.556-0.964c-0.003-0.005-0.002-0.013-0.005-0.018H9.135c-0.275,0-0.5-0.225-0.5-0.5C8.635,43.39,8.859,43.166,9.135,43.166z"/>
		<path fill-rule="evenodd" clip-rule="evenodd" d="M14.158,46.166h1.133l-0.566-0.981c-0.139-0.24-0.057-0.545,0.184-0.684c0.238-0.138,0.545-0.056,0.682,0.184l0.568,0.982l0.566-0.982c0.139-0.239,0.444-0.321,0.684-0.184c0.238,0.139,0.32,0.443,0.183,0.684l-0.567,0.981h1.135c0.275,0,0.5,0.224,0.5,0.501c0,0.275-0.225,0.5-0.5,0.5h-1.135l0.567,0.982c0.138,0.238,0.056,0.545-0.183,0.682c-0.239,0.139-0.545,0.057-0.684-0.182l-0.559-0.969c-0.007,0-0.013,0.005-0.02,0.005l-0.557,0.964c-0.137,0.238-0.443,0.32-0.682,0.182c-0.24-0.137-0.322-0.443-0.184-0.682l0.556-0.964c-0.003-0.005-0.002-0.013-0.005-0.019h-1.117c-0.277,0-0.5-0.225-0.5-0.5C13.658,46.39,13.881,46.166,14.158,46.166z"/>
		<path fill-rule="evenodd" clip-rule="evenodd" d="M17.871,42.842c-0.239-0.138-0.321-0.444-0.184-0.683l0.557-0.963c-0.004-0.006-0.002-0.014-0.006-0.02h-1.117c-0.276,0-0.5-0.224-0.5-0.5c0-0.275,0.224-0.5,0.5-0.5h1.134l-0.567-0.982c-0.138-0.238-0.056-0.545,0.184-0.683c0.238-0.138,0.545-0.056,0.684,0.183l0.566,0.982l0.566-0.982c0.139-0.238,0.444-0.32,0.684-0.183c0.238,0.138,0.32,0.444,0.183,0.683l-0.567,0.982h1.135c0.275,0,0.5,0.225,0.5,0.5c0,0.276-0.225,0.5-0.5,0.5h-1.135l0.567,0.982c0.138,0.238,0.056,0.545-0.183,0.683c-0.239,0.138-0.545,0.056-0.684-0.183l-0.559-0.969c-0.006,0.001-0.012,0.006-0.02,0.006l-0.555,0.963C18.416,42.897,18.109,42.979,17.871,42.842z"/>
		<path fill-rule="evenodd" clip-rule="evenodd" d="M22.108,43.166h1.134l-0.566-0.981c-0.139-0.239-0.057-0.545,0.183-0.684c0.239-0.138,0.544-0.056,0.683,0.184l0.566,0.982l0.568-0.982c0.137-0.239,0.443-0.321,0.682-0.184c0.24,0.139,0.322,0.444,0.184,0.684l-0.566,0.981h1.133c0.277,0,0.502,0.224,0.502,0.501c0,0.275-0.225,0.5-0.502,0.5h-1.133l0.566,0.981c0.139,0.239,0.057,0.545-0.184,0.683c-0.238,0.139-0.545,0.057-0.682-0.183l-0.559-0.968c-0.008,0-0.014,0.004-0.02,0.004l-0.557,0.964c-0.139,0.239-0.444,0.321-0.683,0.183c-0.239-0.138-0.321-0.443-0.183-0.683l0.556-0.964c-0.003-0.005-0.003-0.013-0.005-0.018h-1.118c-0.276,0-0.5-0.225-0.5-0.5C21.608,43.39,21.832,43.166,22.108,43.166z"/>
		<path fill-rule="evenodd" clip-rule="evenodd" d="M16.63,37.677c0,0.276-0.225,0.5-0.501,0.5h-1.134l0.567,0.982c0.138,0.238,0.057,0.545-0.184,0.683c-0.238,0.138-0.545,0.056-0.683-0.183l-0.559-0.969c-0.007,0.001-0.013,0.006-0.02,0.006l-0.556,0.963c-0.139,0.238-0.443,0.32-0.684,0.183c-0.238-0.138-0.32-0.444-0.183-0.683l0.556-0.963c-0.003-0.006-0.002-0.014-0.006-0.02h-1.117c-0.275,0-0.5-0.224-0.5-0.5c0-0.277,0.225-0.5,0.5-0.5h1.135l-0.567-0.982c-0.138-0.239-0.056-0.545,0.183-0.684c0.24-0.137,0.545-0.056,0.684,0.184l0.566,0.982l0.567-0.982c0.138-0.239,0.444-0.32,0.683-0.184c0.24,0.139,0.321,0.444,0.184,0.684l-0.567,0.982h1.134C16.405,37.177,16.63,37.399,16.63,37.677z"/>
		<path fill-rule="evenodd" clip-rule="evenodd" d="M20.644,31.653c0,0.275-0.224,0.5-0.5,0.5H19.01l0.566,0.982c0.139,0.238,0.057,0.545-0.184,0.682c-0.238,0.139-0.544,0.057-0.682-0.182l-0.56-0.969c-0.007,0-0.013,0.006-0.019,0.006l-0.557,0.963c-0.138,0.238-0.444,0.32-0.684,0.182c-0.238-0.137-0.32-0.443-0.183-0.682l0.556-0.963c-0.002-0.006-0.002-0.014-0.005-0.02h-1.118c-0.275,0-0.5-0.225-0.5-0.5c0-0.276,0.225-0.5,0.5-0.5h1.135l-0.567-0.982c-0.138-0.238-0.056-0.545,0.183-0.683c0.239-0.138,0.546-0.056,0.684,0.183l0.566,0.982l0.568-0.982c0.138-0.238,0.443-0.32,0.682-0.183c0.24,0.138,0.322,0.444,0.184,0.683l-0.566,0.982h1.134C20.42,31.153,20.644,31.377,20.644,31.653z"/>
		<path fill-rule="evenodd" clip-rule="evenodd" d="M25.635,34.653c0,0.275-0.225,0.5-0.5,0.5H24l0.566,0.982c0.139,0.238,0.057,0.545-0.182,0.682c-0.24,0.139-0.545,0.057-0.684-0.182l-0.559-0.969c-0.007,0-0.012,0.005-0.02,0.006l-0.556,0.963c-0.138,0.238-0.444,0.32-0.683,0.182c-0.239-0.137-0.321-0.443-0.184-0.682l0.557-0.963c-0.004-0.006-0.002-0.014-0.006-0.02h-1.117c-0.276,0-0.5-0.225-0.5-0.5c0-0.276,0.224-0.5,0.5-0.5h1.134l-0.567-0.982c-0.138-0.238-0.056-0.545,0.184-0.684c0.238-0.137,0.545-0.055,0.683,0.184l0.567,0.982l0.567-0.982c0.139-0.238,0.443-0.32,0.684-0.184c0.238,0.139,0.32,0.445,0.182,0.684L24,34.153h1.135C25.411,34.153,25.635,34.377,25.635,34.653z"/>
		<path fill-rule="evenodd" clip-rule="evenodd" d="M27.258,38.196c-0.004-0.006-0.004-0.014-0.006-0.02h-1.119c-0.275,0-0.5-0.224-0.5-0.5c0-0.277,0.225-0.5,0.5-0.5h1.135l-0.566-0.982c-0.139-0.239-0.057-0.545,0.184-0.684c0.238-0.137,0.545-0.056,0.682,0.184l0.568,0.982l0.566-0.982c0.137-0.239,0.443-0.32,0.682-0.184c0.24,0.139,0.322,0.444,0.184,0.684L29,37.177h1.135c0.275,0,0.5,0.223,0.5,0.5c0,0.276-0.225,0.5-0.5,0.5H29l0.566,0.982c0.139,0.238,0.057,0.545-0.184,0.683c-0.238,0.138-0.545,0.056-0.682-0.183l-0.559-0.969c-0.008,0.001-0.014,0.006-0.02,0.006l-0.557,0.963c-0.137,0.238-0.443,0.32-0.682,0.183c-0.24-0.138-0.322-0.444-0.184-0.683L27.258,38.196z"/>
		<path fill-rule="evenodd" clip-rule="evenodd" d="M29.866,33.817c-0.238-0.137-0.32-0.443-0.182-0.682l0.555-0.963c-0.002-0.006-0.002-0.014-0.004-0.02h-1.119c-0.275,0-0.5-0.225-0.5-0.5c0-0.276,0.225-0.5,0.5-0.5h1.135l-0.566-0.982c-0.139-0.238-0.057-0.545,0.182-0.683c0.24-0.138,0.547-0.056,0.684,0.183l0.568,0.982l0.566-0.982c0.139-0.238,0.443-0.32,0.684-0.183c0.238,0.138,0.32,0.444,0.182,0.683l-0.566,0.982h1.135c0.275,0,0.5,0.224,0.5,0.5c0,0.275-0.225,0.5-0.5,0.5h-1.135l0.566,0.982c0.139,0.238,0.057,0.545-0.182,0.682c-0.24,0.139-0.545,0.057-0.684-0.182l-0.559-0.969c-0.008,0-0.014,0.006-0.02,0.006l-0.557,0.963C30.413,33.874,30.106,33.956,29.866,33.817z"/>
	</g>
</svg>
