<svg viewBox="0 0 48 38" xmlns="http://www.w3.org/2000/svg">
	<path class="ew-cloud" fill="currentColor" d="M6.857,28.408C3.077,28.408,0,25.332,0,21.55c0-3.78,3.077-6.854,6.857-6.854c0.579,0,1.147,0.07,1.7,0.212 c1.488-3.632,5.081-6.092,9.064-6.092c0.981,0,1.942,0.144,2.868,0.428C22.54,3.752,27.868,0,33.794,0C41.627,0,48,6.372,48,14.204 c0,7.674-6.008,13.907-13.676,14.192C34.289,28.396,15.727,28.408,6.857,28.408z"/>
	<path class="ew-lighting" fill-rule="evenodd" clip-rule="evenodd" fill="currentColor" d="M11.791,27.39c0.545-0.873,4.891-7.833,4.891-7.833 c0.139-0.221,0.427-0.293,0.655-0.16c0.226,0.131,0.311,0.409,0.197,0.639l-2.878,6.144c0,0,2.973,0.005,2.415,0.005 c0.085-0.001,0.167,0.019,0.248,0.063c0.241,0.133,0.338,0.446,0.2,0.68c-0.545,0.873-4.89,7.833-4.89,7.833 c-0.139,0.221-0.428,0.293-0.656,0.159c-0.225-0.131-0.31-0.408-0.196-0.638l2.878-6.144c0,0-3.086-0.006-2.415-0.006 c-0.085,0.002-0.167-0.018-0.248-0.063C11.75,27.937,11.653,27.624,11.791,27.39z"/>
	<g class="ew-rain" fill="currentColor">
		<path fill-rule="evenodd" clip-rule="evenodd" d="M16.58,35.242c0.271-0.469,0.87-0.629,1.338-0.358 c0.468,0.271,0.628,0.87,0.358,1.339l-0.979,1.696c-0.271,0.469-0.871,0.629-1.338,0.358c-0.469-0.271-0.628-0.869-0.358-1.338 L16.58,35.242z"/>
		<path fill-rule="evenodd" clip-rule="evenodd" d="M19.519,30.152c0.271-0.469,0.87-0.629,1.338-0.359 c0.468,0.271,0.629,0.87,0.359,1.339l-0.979,1.696c-0.271,0.469-0.871,0.629-1.338,0.359c-0.469-0.271-0.628-0.869-0.359-1.338 L19.519,30.152z"/>
		<path fill-rule="evenodd" clip-rule="evenodd" d="M23.808,32.548c0.272-0.469,0.871-0.629,1.339-0.359 c0.469,0.271,0.63,0.87,0.358,1.339l-0.98,1.697c-0.27,0.468-0.869,0.629-1.337,0.358c-0.469-0.271-0.629-0.869-0.36-1.338 L23.808,32.548z"/>
		<path fill-rule="evenodd" clip-rule="evenodd" d="M21.837,28.097c-0.469-0.271-0.629-0.871-0.359-1.339 l0.979-1.697c0.272-0.468,0.871-0.628,1.339-0.358c0.469,0.271,0.629,0.87,0.357,1.338l-0.979,1.697 C22.905,28.207,22.306,28.367,21.837,28.097z"/>
		<path fill-rule="evenodd" clip-rule="evenodd" d="M26.748,27.458c0.271-0.469,0.869-0.629,1.338-0.359 c0.469,0.271,0.63,0.869,0.358,1.338l-0.979,1.697c-0.27,0.469-0.869,0.629-1.338,0.359c-0.469-0.271-0.629-0.87-0.358-1.338 L26.748,27.458z"/>
		<path fill-rule="evenodd" clip-rule="evenodd" d="M29.688,22.367c0.27-0.468,0.869-0.629,1.338-0.357 c0.469,0.27,0.629,0.869,0.357,1.338l-0.979,1.697c-0.27,0.469-0.868,0.629-1.337,0.359c-0.469-0.271-0.63-0.871-0.359-1.34 L29.688,22.367z"/>
	</g>
</svg>
