<svg viewBox="0 0 44 30" xmlns="http://www.w3.org/2000/svg">
	<g class="ew-moon" fill="currentColor">
		<path d="M18.87,29.031c-4.224,0-8.217-2.047-10.683-5.479c-0.226-0.314-0.25-0.732-0.06-1.07c0.189-0.34,0.55-0.533,0.948-0.515 L9.24,21.98c0.179,0.012,0.358,0.024,0.54,0.024c6.126,0,11.111-4.952,11.111-11.04c0-2.304-0.718-4.518-2.073-6.403 c-0.227-0.315-0.25-0.731-0.062-1.07c0.189-0.338,0.562-0.542,0.947-0.514C26.6,3.409,32,9.122,32,15.984 C32,23.178,26.109,29.031,18.87,29.031z M11.183,23.939c2.053,1.959,4.807,3.084,7.688,3.084c6.125,0,11.109-4.953,11.109-11.039 c0-5.114-3.547-9.476-8.381-10.689c0.861,1.761,1.312,3.687,1.312,5.67C22.91,17.689,17.766,23.242,11.183,23.939z"/>
		<polygon fill-rule="evenodd" clip-rule="evenodd" points="14.665,10.211 15.123,6.618 12.585,8.915 9.254,8.126 11.283,10.995 10.932,14.618 13.485,12.336 16.812,13.147"/>
		<polygon fill-rule="evenodd" clip-rule="evenodd" points="33.313,1.902 33.557,0 32.212,1.216 30.449,0.799 31.523,2.317 31.337,4.235 32.688,3.027 34.449,3.456"/>
	</g>
</svg>
