<svg viewBox="0 0 48 40" xmlns="http://www.w3.org/2000/svg">
	<g class="ew-moon" fill="currentColor">
		<path fill-rule="evenodd" clip-rule="evenodd" d="M34.325,38.353c-0.036,0-18.599,0.012-27.468,0.012 C3.076,38.364,0,35.288,0,31.507c0-2.309,1.15-4.35,2.905-5.592c-1.004-0.757-1.91-1.652-2.66-2.696 C0.023,22.911,0,22.504,0.186,22.173c0.185-0.332,0.537-0.521,0.926-0.502l0.16,0.012c0.175,0.012,0.349,0.025,0.527,0.025 c5.982,0,10.849-4.836,10.849-10.781c0-2.25-0.699-4.412-2.023-6.253c-0.221-0.308-0.244-0.714-0.061-1.045 C10.75,3.298,11.113,3.1,11.49,3.127c6.283,0.394,11.271,5.285,11.912,11.383c2.633-2.824,6.373-4.554,10.392-4.554 C41.626,9.956,48,16.328,48,24.16C48,31.835,41.993,38.067,34.325,38.353z M21.525,15.828c0-4.994-3.465-9.251-8.185-10.438 c0.842,1.72,1.28,3.601,1.28,5.538c0,6.565-5.023,11.987-11.451,12.668c0.539,0.515,1.143,0.945,1.771,1.333 c0.609-0.178,1.252-0.277,1.916-0.277c0.58,0,1.148,0.071,1.7,0.212c1.488-3.632,5.081-6.091,9.063-6.091 c0.981,0,1.942,0.144,2.869,0.428c0.26-0.696,0.573-1.365,0.934-2.001C21.482,16.749,21.525,16.293,21.525,15.828z M33.793,11.916 c-5.409,0-10.242,3.629-11.752,8.825c-0.079,0.271-0.269,0.493-0.522,0.612c-0.254,0.121-0.547,0.127-0.806,0.014 c-0.98-0.421-2.021-0.635-3.093-0.635c-3.459,0-6.551,2.321-7.52,5.643c-0.078,0.27-0.268,0.492-0.521,0.613 c-0.253,0.119-0.544,0.125-0.803,0.015c-0.608-0.261-1.254-0.392-1.92-0.392c-2.699,0-4.898,2.196-4.898,4.896 c0,2.701,2.199,4.898,4.898,4.898c8.869,0,27.43-0.012,27.43-0.012c6.576-0.244,11.754-5.617,11.754-12.233 C46.041,17.408,40.546,11.916,33.793,11.916z"/>
		<polygon fill-rule="evenodd" clip-rule="evenodd" points="6.563,10.211 7.021,6.618 4.484,8.915 1.152,8.126 3.182,10.995 2.831,14.618 5.384,12.336 8.71,13.147"/>
		<polygon fill-rule="evenodd" clip-rule="evenodd" points="25.211,1.902 25.455,0 24.111,1.216 22.347,0.799 23.421,2.317 23.236,4.235 24.587,3.027 26.347,3.456"/>
	</g>
</svg>
