<svg viewBox="0 0 48 48" xmlns="http://www.w3.org/2000/svg">
	<g class="ew-moon" fill="currentColor">
		<path fill-rule="evenodd" clip-rule="evenodd" d="M34.324,38.308c-0.007,0-0.734,0.002-1.945,0.002 c-0.018,0.002-0.033,0.012-0.053,0.012c-0.541,0-0.979-0.439-0.979-0.98s0.438-0.979,0.979-0.979l0,0v-0.011 c1.229,0,1.961,0,1.961,0c6.575-0.244,11.753-5.619,11.753-12.234c0-6.751-5.495-12.245-12.247-12.245 c-5.409,0-10.242,3.629-11.752,8.825c-0.078,0.27-0.27,0.493-0.523,0.612c-0.253,0.121-0.546,0.126-0.805,0.014 c-0.98-0.421-2.021-0.635-3.092-0.635c-3.459,0-6.553,2.32-7.52,5.643c-0.079,0.27-0.27,0.49-0.521,0.611 c-0.254,0.12-0.545,0.127-0.805,0.016c-0.607-0.26-1.252-0.391-1.918-0.391c-2.701,0-4.898,2.195-4.898,4.896 c0,2.7,2.197,4.897,4.898,4.897c0.608,0,1.268,0,1.959,0l0,0c0.541,0,0.979,0.438,0.979,0.979s-0.438,0.98-0.979,0.98 c-0.001,0-0.001,0-0.002,0c-0.69,0-1.349,0-1.957,0C3.076,38.321,0,35.244,0,31.464c0-2.309,1.155-4.346,2.91-5.588 c-1.007-0.758-1.915-1.655-2.666-2.701C0.022,22.867,0,22.46,0.186,22.129c0.185-0.331,0.535-0.521,0.926-0.501l0.16,0.011 c0.175,0.012,0.35,0.025,0.527,0.025c5.981,0,10.848-4.835,10.848-10.78c0-2.25-0.699-4.412-2.021-6.253 c-0.223-0.308-0.246-0.714-0.061-1.045c0.185-0.331,0.548-0.53,0.924-0.502c6.285,0.393,11.272,5.286,11.913,11.383 c2.633-2.824,6.374-4.553,10.392-4.553C41.627,9.913,48,16.284,48,24.116C48,31.79,41.992,38.024,34.324,38.308z M13.34,5.346 c0.842,1.719,1.279,3.601,1.279,5.537c0,6.565-5.022,11.988-11.451,12.668c0.549,0.523,1.164,0.959,1.807,1.352 c0.602-0.174,1.225-0.295,1.883-0.295c0.578,0,1.146,0.07,1.699,0.212c1.488-3.632,5.081-6.091,9.064-6.091 c0.98,0,1.941,0.143,2.867,0.427c0.261-0.696,0.574-1.365,0.935-2.001c0.06-0.45,0.101-0.906,0.101-1.372 C21.523,10.79,18.061,6.532,13.34,5.346z"/>
		<polygon fill-rule="evenodd" clip-rule="evenodd" points="6.563,10.211 7.021,6.618 4.484,8.915 1.152,8.126 3.182,10.995 2.831,14.618 5.384,12.336 8.71,13.147"/>
		<polygon fill-rule="evenodd" clip-rule="evenodd" points="25.211,1.902 25.455,0 24.111,1.216 22.347,0.799 23.421,2.317 23.236,4.235 24.587,3.027 26.347,3.456"/>
	</g>
	<g class="ew-rain" fill="currentColor">
		<path fill-rule="evenodd" clip-rule="evenodd" d="M11.09,41.216c0.276-0.479,0.888-0.643,1.366-0.367 c0.478,0.277,0.642,0.889,0.366,1.367l-1,1.731c-0.276,0.479-0.889,0.642-1.366,0.366c-0.479-0.276-0.642-0.888-0.366-1.366 L11.09,41.216z"/>
		<path fill-rule="evenodd" clip-rule="evenodd" d="M14.09,36.019c0.276-0.479,0.888-0.643,1.366-0.365 c0.478,0.275,0.642,0.887,0.366,1.365l-1,1.732c-0.276,0.479-0.889,0.643-1.366,0.366c-0.479-0.276-0.642-0.888-0.366-1.366 L14.09,36.019z"/>
		<path fill-rule="evenodd" clip-rule="evenodd" d="M15.344,44.216c0.277-0.479,0.889-0.643,1.367-0.367 c0.479,0.277,0.643,0.889,0.365,1.367l-1,1.732c-0.275,0.478-0.888,0.642-1.365,0.365c-0.479-0.275-0.643-0.887-0.367-1.365 L15.344,44.216z"/>
		<path fill-rule="evenodd" clip-rule="evenodd" d="M16.456,33.921c-0.479-0.276-0.642-0.889-0.366-1.366l1-1.732 c0.277-0.478,0.889-0.642,1.367-0.366c0.479,0.276,0.642,0.889,0.365,1.366l-1,1.732C17.547,34.033,16.935,34.196,16.456,33.921z"/>
		<path fill-rule="evenodd" clip-rule="evenodd" d="M18.345,39.019c0.276-0.478,0.888-0.642,1.366-0.365 c0.479,0.275,0.643,0.887,0.365,1.365l-1,1.732c-0.275,0.479-0.887,0.643-1.365,0.366s-0.643-0.888-0.366-1.366L18.345,39.019z"/>
		<path fill-rule="evenodd" clip-rule="evenodd" d="M21.345,33.822c0.276-0.478,0.888-0.642,1.366-0.366 c0.479,0.276,0.643,0.889,0.365,1.366l-1,1.732c-0.275,0.479-0.887,0.643-1.365,0.366s-0.643-0.888-0.366-1.366L21.345,33.822z"/>
		<path fill-rule="evenodd" clip-rule="evenodd" d="M23.09,41.216c0.277-0.479,0.889-0.643,1.367-0.367 c0.479,0.277,0.642,0.889,0.365,1.367l-1,1.731c-0.275,0.479-0.887,0.642-1.365,0.366c-0.479-0.276-0.643-0.888-0.367-1.366 L23.09,41.216z"/>
		<path fill-rule="evenodd" clip-rule="evenodd" d="M26.091,36.019c0.276-0.479,0.888-0.643,1.366-0.365 c0.479,0.275,0.643,0.887,0.366,1.365l-1,1.732c-0.276,0.479-0.889,0.643-1.366,0.366c-0.479-0.276-0.643-0.888-0.367-1.366 L26.091,36.019z"/>
		<path fill-rule="evenodd" clip-rule="evenodd" d="M29.091,30.822c0.276-0.478,0.888-0.642,1.366-0.366 c0.479,0.276,0.643,0.889,0.366,1.366l-1,1.732c-0.276,0.479-0.888,0.642-1.366,0.366c-0.479-0.276-0.643-0.889-0.366-1.366 L29.091,30.822z"/>
	</g>
</svg>
